 <svg viewBox="0 0 394 416" fill="none" xmlns="http://www.w3.org/2000/svg">
<path d="M393.13 194.91C393.02 194.6 392.91 194.3 392.81 193.98C392.99 190.86 393.29 187.72 392.12 184.7C392.03 183.14 391.94 181.57 391.86 180.01C392.01 178.21 392.09 176.42 391.11 174.78C391.01 173.53 390.92 172.29 390.82 171.04C389.9 166.36 388.99 161.69 388.07 157.01C384.85 137.01 378.3 118.13 368.92 100.2C367.36 94.93 364.46 90.42 361 86.22C358.93 81.05 355.45 76.88 351.53 73.03C351.37 69.82 348.17 68.76 346.84 66.39C340.72 59.31 333.84 52.98 327.12 46.49C324.68 45.64 323.92 42.58 321.24 42.04C318.06 39.54 315.04 36.8 311.29 35.11C308.59 33.51 306.47 30.97 303.28 30.14C302.56 29.06 301.53 28.47 300.25 28.31C299.6 27.82 298.99 27.25 298.29 26.85C277.15 15 254.77 6.58997 230.83 2.49997C212.09 -0.700028 193.33 -0.950028 174.57 2.32997C149.89 6.63997 127.87 17.12 107.96 32C95.5998 41.24 84.0199 51.44 74.7299 63.94C67.8099 71.28 61.4998 79.07 56.8398 88.08C56.1898 88.57 55.3498 88.92 54.9298 89.56C48.4898 99.34 42.0698 109.13 37.9598 120.2C35.2598 120.7 35.1498 123.19 34.2398 125.06C34.1998 125.44 34.1498 125.83 34.1098 126.21C34.5698 126.56 34.7098 126.92 34.6998 127.3C34.5798 127.01 34.3898 126.68 34.1098 126.21C28.5898 134.49 25.3298 143.79 22.1298 153.1C21.1298 154.6 19.8998 156 20.2598 158.01C19.2098 159.47 17.9898 160.85 18.2398 162.85C17.8798 163.92 17.5098 164.99 17.1498 166.06C16.1698 167.57 14.8998 168.96 15.2898 170.98C14.4298 172.58 12.3298 173.82 13.8298 176.09C13.7898 176.36 13.8498 176.61 13.9798 176.85C11.2798 177.84 10.9698 179.74 11.9298 182.15C11.7998 182.36 11.8198 182.55 11.9898 182.73C9.34985 182.99 9.90985 185.38 9.18985 186.93C8.80985 188.57 7.63985 190.03 8.09985 191.86C8.33985 193.36 6.46985 194.32 7.06985 195.91C6.98985 196.19 6.96985 196.48 6.99985 196.77C5.31985 198.47 5.02985 200.62 5.04985 202.86C4.39985 203.78 3.84985 204.73 4.12985 205.93C3.88985 207.58 2.44985 209.02 3.26985 210.86C2.90985 213.19 2.54985 215.52 2.17985 217.84C2.08985 218.78 1.99985 219.71 1.91985 220.65C1.08985 221.96 0.929846 223.39 1.20985 224.89L0.919846 231.61C-0.230154 238.07 -0.380154 244.54 0.889846 251C0.749846 251.29 0.799846 251.54 1.03985 251.75C1.09985 254.05 1.15985 256.35 1.20985 258.65C0.949846 260.16 0.899846 261.64 1.84985 262.97C1.95985 264.19 2.06985 265.41 2.17985 266.64C2.17985 267.34 2.17985 268.03 2.17985 268.73C2.49985 270.03 2.82985 271.34 3.14985 272.64C3.45985 277.46 4.82985 282.06 6.11985 286.67C5.64985 289.29 7.08985 291.39 8.00985 293.63C7.85985 294.8 7.93985 295.91 8.90985 296.76C8.94985 298.43 8.99985 300.09 10.9698 300.77C10.5298 302.05 11.4798 302.77 12.1098 303.62C12.1198 304.62 12.1298 305.61 12.1398 306.61C13.0298 308.68 13.0798 311.13 14.9298 312.77C17.9098 323.39 22.7898 333.18 28.7598 342.35C31.2498 346.17 33.0898 350.61 36.9498 353.47C37.9098 356.98 40.6998 359.07 43.0998 361.48C44.4398 364.16 46.6098 366.1 48.8198 368.01C50.7098 370.68 53.1198 372.82 55.6798 374.81C56.8398 376.23 57.9598 377.71 59.8498 378.23C65.3398 384.05 71.8898 388.46 78.8198 392.35C87.0499 397.25 95.2399 402.24 104.73 404.42C109.85 406.73 115.06 408.76 120.74 409.2C122.49 410.55 124.7 410.48 126.67 411.15C133.63 412.34 140.52 414.05 147.64 414.15C148.32 414.16 148.99 414.18 149.67 414.19C151.58 414.28 153.48 414.36 155.39 414.45C163.28 415.66 171.18 415.74 179.06 414.41C181.87 414.33 184.69 414.26 187.5 414.18C189.29 414.29 191.09 414.42 192.73 413.46C194.31 413.35 195.88 413.24 197.46 413.14C199.79 412.81 202.11 412.48 204.44 412.14C206.42 411.1 208.94 412.13 210.76 410.49C211.98 410.38 213.21 410.27 214.43 410.16C216.06 409.82 217.7 409.49 219.33 409.15C238.53 405.09 256.87 398.58 274.34 389.65C277.9 388.02 281.9 387.1 284.29 383.55C284.94 383.47 285.58 383.38 286.23 383.3C291.41 380.28 296.52 377.14 301.19 373.35C302.14 373.58 302.63 372.93 303.17 372.35C304.5 371.38 305.84 370.42 307.17 369.45C310.6 367.59 313.57 365.16 316.18 362.26C318.5 361.28 320.11 359.45 321.69 357.6C327.61 351.64 333.52 345.69 339.44 339.73C340.85 338.55 342.32 337.43 342.91 335.57C354.46 322.85 363.6 308.6 370.22 292.74C370.78 292.58 371.08 292.27 370.91 291.65C371.34 291.03 371.77 290.41 372.2 289.79C374.59 287.62 375.04 284.56 375.94 281.71C377.65 277.46 379.35 273.2 381.06 268.95C382.85 266.15 383.34 262.93 384.02 259.77C385.21 256.89 386.56 254.05 385.83 250.79L386.91 247.78C388.12 246.35 388.52 244.75 387.99 242.93C390.02 241.59 388.83 239.56 389.1 237.84C390.87 236.38 390.03 234.54 389.81 232.8C390.15 232.14 390.5 231.48 390.84 230.81C391.27 226.32 391.7 221.82 392.13 217.33C393.33 213.59 393 209.75 392.8 205.92C392.91 204.59 393.01 203.26 393.12 201.93H393.95V194.94C393.67 194.91 393.39 194.91 393.11 194.93L393.13 194.91ZM391.6 190.02C391.55 189.89 391.5 189.74 391.48 189.54C391.48 189.47 391.48 189.39 391.49 189.32C391.53 189.55 391.56 189.79 391.6 190.02ZM289.73 316.5C289.66 316.45 289.59 316.42 289.52 316.38C289.54 316.32 289.56 316.25 289.58 316.19C289.63 316.29 289.68 316.39 289.74 316.5H289.73ZM166.66 350.79C166.66 350.69 166.66 350.59 166.65 350.5C166.8 350.52 166.96 350.54 167.11 350.58C166.95 350.65 166.81 350.73 166.66 350.8V350.79ZM164.56 343.73C164.47 343.6 164.38 343.49 164.29 343.38C164.36 343.33 164.43 343.28 164.5 343.21C164.52 343.38 164.55 343.55 164.55 343.72L164.56 343.73ZM170.23 210.03C170.14 209.94 170.05 209.86 169.96 209.79C170.05 209.75 170.14 209.71 170.22 209.67C170.22 209.79 170.23 209.91 170.22 210.03H170.23ZM171.54 260.74C171.54 260.74 171.56 260.77 171.57 260.79C171.55 260.77 171.53 260.76 171.51 260.74H171.54ZM158.42 269.94L158.34 269.8C158.41 269.83 158.47 269.85 158.54 269.87C158.5 269.89 158.45 269.91 158.42 269.94ZM180.34 343.9C180.54 343.95 180.74 344.06 180.93 344.24C180.83 344.33 180.72 344.42 180.57 344.51C180.51 344.26 180.43 344.07 180.34 343.9ZM220.57 270.58C220.54 270.33 220.5 270.08 220.45 269.83C220.63 269.9 220.79 269.98 220.98 270.03C220.83 270.22 220.7 270.4 220.57 270.58ZM242.16 259.67C242.21 259.76 242.25 259.84 242.31 259.94C242.19 259.89 242.09 259.85 241.98 259.8C242.04 259.76 242.11 259.72 242.17 259.67H242.16ZM159.03 208.28C158.97 208.47 158.93 208.67 158.9 208.88C158.89 208.97 158.22 209.15 158.1 209.03C158.04 208.97 157.98 208.92 157.91 208.86C158.29 208.69 158.67 208.5 159.03 208.29V208.28ZM173.66 344.4C173.66 344.4 173.61 344.48 173.59 344.51L173.64 344.53C173.64 344.53 173.6 344.55 173.59 344.57C173.59 344.55 173.59 344.54 173.59 344.52C173.59 344.49 173.58 344.46 173.57 344.43L173.66 344.41V344.4ZM183.91 324.14C183.96 324.03 183.99 323.94 184.04 323.84C184.08 323.86 184.11 323.87 184.15 323.89C184.07 323.98 184 324.05 183.91 324.15V324.14ZM190.07 325.52C189.92 326 189.78 326.51 189.65 327.07C189.55 326.45 189.43 325.9 189.31 325.4C189.61 325.46 189.86 325.5 190.07 325.52ZM199.58 321.51C199.55 321.2 199.54 320.92 199.54 320.66C199.76 320.87 199.97 321.04 200.17 321.19C199.95 321.33 199.74 321.49 199.51 321.62V321.58C199.51 321.58 199.44 321.55 199.41 321.53C199.46 321.53 199.52 321.52 199.57 321.51H199.58ZM230.61 340.25C229.73 341.05 229.5 340.76 229.45 340.14C229.86 340.21 230.25 340.25 230.61 340.25ZM268.7 271.62C268.7 271.62 268.64 271.64 268.61 271.66C268.64 271.61 268.65 271.56 268.67 271.51C268.68 271.55 268.69 271.59 268.7 271.63V271.62ZM268.41 271.8C268.41 271.8 268.39 271.83 268.38 271.85L268.35 271.83C268.35 271.83 268.39 271.81 268.41 271.8ZM246.32 146.06C246.38 146.14 246.44 146.21 246.5 146.29H246.47C246.42 146.22 246.36 146.14 246.29 146.06C246.3 146.06 246.31 146.06 246.32 146.06ZM111.73 311.63C111.73 311.63 111.76 311.6 111.77 311.59C111.8 311.59 111.83 311.6 111.86 311.61C111.8 311.66 111.75 311.71 111.7 311.76L111.73 311.63ZM144.72 339.45C144.58 339.77 144.37 340.01 144.08 340.11C144.31 339.91 144.52 339.69 144.72 339.45ZM246.58 332.19C246.58 332.19 246.61 332.1 246.63 332.06C246.65 332.08 246.67 332.1 246.69 332.13L246.59 332.23V332.19H246.58ZM239.9 142.9C239.67 142.66 239.43 142.42 239.2 142.17C239.52 142.32 239.8 142.48 240.08 142.63C240.01 142.72 239.95 142.81 239.9 142.9ZM185.26 139.34C185.18 139.23 185.09 139.13 185.02 139V138.97C185.14 138.98 185.24 139.01 185.35 139.03C185.31 139.13 185.29 139.23 185.27 139.33L185.26 139.34ZM102.95 274.84C103.16 274.37 103.49 273.91 103.95 273.45C103.66 273.95 103.33 274.42 102.95 274.84ZM75.5098 267.86C75.0098 268.02 74.5599 268.17 74.1498 268.3C74.1999 267.97 74.2299 267.56 74.2598 267.06C74.6398 267.3 75.0499 267.57 75.5098 267.86ZM141.39 227.96H141.35C141.35 227.96 141.44 227.9 141.49 227.88C141.46 227.91 141.43 227.94 141.4 227.96H141.39ZM79.8198 260.74L79.7898 260.72H79.8198V260.74ZM284.5 278.47L284.56 278.4C284.56 278.4 284.58 278.44 284.59 278.46C284.56 278.46 284.53 278.46 284.5 278.46V278.47ZM299.22 272.71C299.22 272.71 299.3 272.78 299.34 272.81C299.34 272.84 299.32 272.86 299.32 272.89C299.26 272.84 299.21 272.8 299.15 272.75C299.17 272.74 299.2 272.72 299.22 272.7V272.71ZM312.76 158.04C312.67 157.91 312.56 157.79 312.44 157.68C312.63 157.63 312.83 157.59 313.04 157.56C312.94 157.72 312.84 157.88 312.75 158.04H312.76ZM293.96 129.67C293.96 129.67 293.99 129.62 294.01 129.6C294.06 129.64 294.12 129.68 294.17 129.72C294.1 129.71 294.03 129.69 293.97 129.67H293.96ZM312.8 285.29C312.71 285.44 312.59 285.59 312.4 285.74C312.25 285.86 312.09 285.95 311.91 286.04C312.17 285.76 312.47 285.52 312.8 285.29ZM221.32 87.66C221.57 87.38 221.8 87.23 221.98 87.44C221.76 87.51 221.54 87.58 221.32 87.66ZM158.68 378.74C158.41 378.86 158.12 378.86 157.79 378.72C158.09 378.73 158.38 378.74 158.68 378.74ZM207.11 93.21C208.01 92.44 208.84 91.81 209.79 92.34C210.01 92.46 210.21 92.56 210.42 92.66C209.34 92.89 208.23 93.07 207.11 93.21ZM192.21 72.36V72.33C192.5 72.35 192.83 72.35 193.19 72.34C192.87 72.38 192.54 72.39 192.21 72.36ZM161.48 59.07C161.87 58.99 162.26 58.91 162.65 58.84C162.34 59.11 161.93 59.15 161.48 59.07ZM237.97 365.47C238.44 364.94 238.81 364.87 239.11 365.01C238.72 365.22 238.31 365.4 237.9 365.57C237.92 365.54 237.94 365.5 237.97 365.47ZM319.87 111.88C320.11 111.73 320.38 111.63 320.66 111.57C320.4 111.69 320.13 111.8 319.87 111.88ZM146.64 65.18C146.64 65.18 146.64 65.25 146.64 65.29C146.54 65.2 146.44 65.12 146.35 65.04C146.44 65.08 146.54 65.13 146.63 65.18H146.64ZM52.1898 200.7C52.1098 200.75 52.0298 200.8 51.9598 200.85C52.0398 200.78 52.1098 200.7 52.1998 200.64C52.1998 200.66 52.1998 200.68 52.1998 200.7H52.1898ZM54.7998 227.51C54.4798 227.99 53.9998 228.14 53.4898 228.19C53.1598 227.69 53.0198 227.14 52.7798 226.59C53.5398 226.85 54.2498 227.14 54.7998 227.51ZM76.5098 358.68C76.2098 358.7 76.0898 358.51 76.0298 358.25C76.1898 358.39 76.3498 358.53 76.5098 358.68ZM48.6098 218.67C48.4898 218.84 48.3798 219.01 48.2698 219.17C47.9698 218.79 47.6398 218.43 47.2998 218.08C47.6798 218.06 48.1098 218.2 48.6098 218.67ZM180.59 385.33V385.39H180.55C180.55 385.39 180.58 385.35 180.59 385.33ZM100.82 91C100.95 90.88 101.1 90.78 101.26 90.71C101.11 90.8 100.97 90.9 100.82 91ZM23.9798 271.71C23.9098 271.68 23.8598 271.64 23.7898 271.61C23.8498 271.58 23.8998 271.55 23.9598 271.51C23.9598 271.58 23.9698 271.64 23.9798 271.71ZM25.9698 282.62C25.9698 282.62 25.9698 282.66 25.9698 282.68C25.9398 282.68 25.9198 282.68 25.8898 282.68C25.9198 282.66 25.9398 282.64 25.9698 282.62ZM263.29 36.26V36.24C263.29 36.24 263.31 36.22 263.33 36.21L263.29 36.26ZM48.9998 349.54C48.9998 349.54 48.9898 349.59 48.9798 349.61C48.9598 349.57 48.9398 349.53 48.9198 349.49L48.9998 349.54ZM25.9898 316.44C25.9898 316.44 25.9898 316.53 25.9898 316.58C25.9098 316.55 25.8498 316.51 25.7798 316.48C25.8498 316.48 25.9198 316.46 25.9998 316.45L25.9898 316.44ZM259.34 385.38C259.4 385.34 259.46 385.31 259.52 385.27C259.53 385.32 259.55 385.36 259.56 385.41C259.49 385.4 259.42 385.39 259.34 385.37V385.38ZM27.9798 331.54L27.9498 331.51H27.9698C27.9698 331.51 27.9698 331.53 27.9698 331.54H27.9798ZM264.29 388.38C264.29 388.38 264.31 388.38 264.33 388.38V388.42L264.29 388.37V388.38ZM387 225.84C387 225.84 387 225.74 387 225.69L387.04 225.72C387.04 225.72 387.01 225.8 386.99 225.83L387 225.84ZM391.88 190.29C391.91 190.4 391.96 190.46 392.05 190.45C392.53 190.38 392.1 190.68 391.77 190.3C391.77 190.18 391.79 190.06 391.79 189.95C391.82 190.07 391.85 190.18 391.88 190.3V190.29ZM162.49 414.22C162.49 414.22 162.5 414.12 162.51 414.08C162.53 414.13 162.55 414.18 162.58 414.22H162.49ZM319.3 357.35C319.3 357.35 319.34 357.44 319.36 357.48H319.18C319.18 357.48 319.26 357.39 319.29 357.35H319.3Z" fill="#d5d0c9"></path>
</svg>
